# xmcd CD database file
#
# Track frame offsets:
#	150
#	15202
#	28360
#	44505
#	58312
#	132355
#	141750
#	181997
#	195302
#	217467
#	228907
#	269470
#	282125
#
# Disc length: 3876 seconds
#
# Revision: 0
# Processed by: cddbd v1.5.1PL0 Copyright (c) Steve Scherf et al.
# Submitted via: CDex 1.51
#
DISCID=c60f220d
DTITLE=George Gershwin - American Legends
DYEAR=1996
DGENRE=Jazz
TTITLE0=Somebody Loves Me - Harry James with Helen Forrest
TTITLE1=Embraceable You - Jo Stafford with Paul Weston and His Orchestra
TTITLE2=Lady Be Good - Bing Crosby with Tommy Dorsey and Joe Venuti
TTITLE3=The Man I Love - Lee Wiley with Eddie Condon's Orchestra
TTITLE4=An American In Paris - Ray Heindorf and The Warner Bros Studio Orchestra
TTITLE5=Nice Work If You Can Get It - Dinah Shore, A&C, Harry Zimmerman
TTITLE6=Variations On I Got Rhythm - Oscar Levant, conducted by Morton Gould
TTITLE7=They Can't Take That Away From Me - Peggy Lee, A&C, Sy Oliver
TTITLE8=Three Preludes - George Gershwin at the Piano
TTITLE9=Easy To Love - Eartha Kitt
TTITLE10=Rhapsody In Blue - George Gershwin, Paul Whiteman and His Orchestra
TTITLE11=Our Love Is Here To Stay - Rod McKuen
TTITLE12=Swanee - Al Jolson
EXTD=YEAR: 1996
EXTT0=
EXTT1=
EXTT2=
EXTT3=
EXTT4=
EXTT5=
EXTT6=
EXTT7=
EXTT8=
EXTT9=
EXTT10=
EXTT11=
EXTT12=
PLAYORDER=
